<?xml version="1.0" encoding="iso-8859-1"?>
<!-- Generator: Adobe Illustrator 19.0.0, SVG Export Plug-In . SVG Version: 6.00 Build 0)  -->
<svg version="1.1" id="Layer_1" xmlns="http://www.w3.org/2000/svg" xmlns:xlink="http://www.w3.org/1999/xlink" x="0px" y="0px"
	 viewBox="0 0 1000 1000" style="enable-background:new 0 0 1000 1000;" xml:space="preserve">
<g id="XMLID_1_">
	<path id="XMLID_31_" d="M183.03,441.204l29.861,39.627v-39.627h15.963v65.826H213.83l-29.861-39.439v39.439h-16.058v-65.826H183.03
		z"/>
	<path id="XMLID_33_" d="M317.033,495.386h-28.452l-4.602,11.643h-17.654l28.265-65.826h17.653l27.607,65.826h-18.311
		L317.033,495.386z M311.963,482.24l-9.015-23.476l-9.203,23.476H311.963z"/>
	<path id="XMLID_36_" d="M383.989,441.204l16.434,47.609l16.526-47.609h17.654l-25.729,65.826h-17.842l-25.541-65.826H383.989z"/>
	<path id="XMLID_38_" d="M487.381,441.204l29.86,39.627v-39.627h15.964v65.826h-15.024l-29.861-39.439v39.439h-16.057v-65.826
		H487.381z"/>
	<path id="XMLID_40_" d="M629.459,441.204v13.71h-34.744v12.302h31.363v13.615l-31.363,0.095v12.395h35.684v13.709h-52.867v-65.826
		H629.459z"/>
	<path id="XMLID_42_" d="M724.304,441.204v13.71H689.56v12.302h31.363v13.615l-31.363,0.095v12.395h35.684v13.709h-52.867v-65.826
		H724.304z"/>
	<path id="XMLID_44_" d="M817.927,441.204v14.18h-19.72v51.646h-17.184v-51.646h-19.532v-14.18H817.927z"/>
</g>
<g id="XMLID_2_">
	<path id="XMLID_6_" style="fill:#009245;" d="M220.538,543.049c0,11.066-3.003,19.526-9.01,25.379
		c-6.007,5.854-14.65,8.781-25.93,8.781h-18.57v-67.037h20.542c10.424,0,18.525,2.889,24.302,8.666
		C217.649,524.616,220.538,532.686,220.538,543.049z M212.285,543.324c0-8.742-2.194-15.33-6.58-19.763
		c-4.387-4.433-10.906-6.649-19.556-6.649h-11.326v53.557h9.492c9.292,0,16.278-2.285,20.955-6.855
		C209.946,559.044,212.285,552.281,212.285,543.324z"/>
	<path id="XMLID_9_" style="fill:#009245;" d="M272.856,577.209h-37.37v-67.037h37.37v6.924h-29.575v21.597h27.787v6.878h-27.787
		v24.669h29.575V577.209z"/>
	<path id="XMLID_11_" style="fill:#009245;" d="M325.541,559.372c0,5.9-2.14,10.5-6.419,13.802
		c-4.28,3.302-10.087,4.952-17.424,4.952c-7.948,0-14.062-1.023-18.341-3.072v-7.52c2.751,1.162,5.747,2.079,8.987,2.751
		c3.24,0.673,6.449,1.009,9.629,1.009c5.196,0,9.109-0.985,11.738-2.957c2.629-1.972,3.943-4.716,3.943-8.231
		c0-2.322-0.466-4.226-1.398-5.708c-0.933-1.482-2.492-2.851-4.677-4.104c-2.186-1.253-5.51-2.674-9.973-4.264
		c-6.236-2.231-10.691-4.876-13.366-7.933c-2.675-3.057-4.012-7.046-4.012-11.968c0-5.166,1.941-9.277,5.823-12.334
		c3.882-3.057,9.018-4.586,15.407-4.586c6.664,0,12.793,1.224,18.387,3.669l-2.43,6.786c-5.533-2.323-10.913-3.485-16.141-3.485
		c-4.126,0-7.352,0.887-9.675,2.659c-2.323,1.773-3.485,4.234-3.485,7.383c0,2.323,0.428,4.227,1.284,5.709
		c0.855,1.482,2.3,2.843,4.333,4.08c2.032,1.238,5.143,2.606,9.331,4.104c7.03,2.507,11.868,5.197,14.512,8.07
		C324.219,551.058,325.541,554.787,325.541,559.372z"/>
	<path id="XMLID_13_" style="fill:#009245;" d="M339.251,577.209v-67.037h7.795v67.037H339.251z"/>
	<path id="XMLID_15_" style="fill:#009245;" d="M394.917,542.086h22.787v32.602c-3.545,1.131-7.152,1.987-10.82,2.567
		s-7.918,0.871-12.748,0.871c-10.148,0-18.05-3.019-23.705-9.056c-5.656-6.037-8.483-14.497-8.483-25.38
		c0-6.97,1.398-13.075,4.196-18.318c2.797-5.242,6.824-9.246,12.082-12.013s11.418-4.15,18.479-4.15
		c7.152,0,13.816,1.315,19.992,3.943l-3.027,6.878c-6.051-2.567-11.875-3.852-17.469-3.852c-8.162,0-14.536,2.431-19.121,7.291
		c-4.585,4.86-6.878,11.601-6.878,20.221c0,9.049,2.208,15.911,6.626,20.588c4.417,4.677,10.904,7.016,19.465,7.016
		c4.646,0,9.186-0.534,13.617-1.604v-20.634h-14.992V542.086z"/>
	<path id="XMLID_17_" style="fill:#009245;" d="M486.164,577.209h-8.896l-36.636-56.262h-0.367
		c0.488,6.604,0.733,12.655,0.733,18.158v38.104H433.8v-67.037h8.804l36.544,56.032h0.367c-0.062-0.825-0.199-3.477-0.413-7.955
		c-0.214-4.478-0.29-7.681-0.229-9.606v-38.471h7.29V577.209z"/>
	<path id="XMLID_19_" style="fill:#009245;" d="M563.105,577.209h-7.703l-13.526-44.89c-0.643-1.987-1.361-4.494-2.155-7.521
		c-0.796-3.026-1.208-4.844-1.238-5.456c-0.673,4.035-1.742,8.453-3.21,13.251l-13.113,44.615h-7.703l-17.837-67.037h8.253
		l10.593,41.405c1.467,5.809,2.536,11.066,3.209,15.773c0.825-5.594,2.048-11.065,3.669-16.415l12.013-40.764h8.254l12.609,41.13
		c1.468,4.739,2.705,10.088,3.714,16.049c0.58-4.34,1.681-9.629,3.302-15.865l10.546-41.313h8.254L563.105,577.209z"/>
	<path id="XMLID_21_" style="fill:#009245;" d="M649.721,543.599c0,10.729-2.713,19.167-8.139,25.311
		c-5.427,6.145-12.969,9.217-22.628,9.217c-9.874,0-17.493-3.019-22.858-9.056c-5.364-6.037-8.047-14.559-8.047-25.563
		c0-10.913,2.689-19.372,8.07-25.379c5.38-6.007,13.022-9.011,22.927-9.011c9.629,0,17.148,3.058,22.56,9.171
		C647.016,524.402,649.721,532.839,649.721,543.599z M596.303,543.599c0,9.079,1.933,15.965,5.8,20.657s9.484,7.038,16.852,7.038
		c7.428,0,13.037-2.339,16.828-7.016c3.789-4.677,5.686-11.569,5.686-20.68c0-9.017-1.888-15.857-5.663-20.519
		s-9.362-6.993-16.759-6.993c-7.429,0-13.076,2.347-16.943,7.039S596.303,534.643,596.303,543.599z"/>
	<path id="XMLID_24_" style="fill:#009245;" d="M672.464,549.33v27.879h-7.795v-67.037h18.387c8.223,0,14.298,1.575,18.227,4.723
		c3.928,3.149,5.892,7.887,5.892,14.215c0,8.865-4.493,14.856-13.48,17.975l18.203,30.125h-9.216l-16.232-27.879H672.464z
		 M672.464,542.636h10.684c5.502,0,9.537-1.093,12.104-3.278c2.568-2.186,3.853-5.464,3.853-9.835c0-4.433-1.308-7.627-3.921-9.584
		c-2.613-1.955-6.81-2.935-12.587-2.935h-10.133V542.636z"/>
	<path id="XMLID_27_" style="fill:#009245;" d="M771.139,577.209h-9.17l-24.439-32.51l-7.016,6.236v26.273h-7.795v-67.037h7.795
		v33.243l30.4-33.243h9.216l-26.961,29.117L771.139,577.209z"/>
	<path id="XMLID_29_" style="fill:#009245;" d="M818.184,559.372c0,5.9-2.14,10.5-6.419,13.802
		c-4.28,3.302-10.088,4.952-17.425,4.952c-7.948,0-14.062-1.023-18.341-3.072v-7.52c2.751,1.162,5.747,2.079,8.987,2.751
		c3.239,0.673,6.449,1.009,9.629,1.009c5.196,0,9.109-0.985,11.738-2.957s3.943-4.716,3.943-8.231c0-2.322-0.467-4.226-1.398-5.708
		c-0.933-1.482-2.492-2.851-4.677-4.104c-2.187-1.253-5.511-2.674-9.974-4.264c-6.235-2.231-10.691-4.876-13.365-7.933
		c-2.676-3.057-4.013-7.046-4.013-11.968c0-5.166,1.941-9.277,5.823-12.334s9.018-4.586,15.407-4.586
		c6.663,0,12.792,1.224,18.387,3.669l-2.431,6.786c-5.533-2.323-10.913-3.485-16.14-3.485c-4.127,0-7.353,0.887-9.675,2.659
		c-2.324,1.773-3.485,4.234-3.485,7.383c0,2.323,0.428,4.227,1.284,5.709c0.855,1.482,2.3,2.843,4.333,4.08
		c2.032,1.238,5.143,2.606,9.331,4.104c7.03,2.507,11.868,5.197,14.513,8.07C816.861,551.058,818.184,554.787,818.184,559.372z"/>
</g>
<polygon id="XMLID_4_" style="stroke:#009245;stroke-miterlimit:10;" points="448.057,434.297 490.175,403.113 596.427,390.429 
	749.426,411.099 818.133,438.863 798.035,366.363 "/>
<polygon id="XMLID_5_" style="fill:#8CC63F;stroke:#FFFFFF;stroke-miterlimit:10;" points="152.322,599.57 204.016,591.717 
	221.91,567.834 "/>
<g id="XMLID_3_">
</g>
<g id="XMLID_46_">
</g>
<g id="XMLID_47_">
</g>
<g id="XMLID_48_">
</g>
<g id="XMLID_49_">
</g>
<g id="XMLID_50_">
</g>
<g id="XMLID_51_">
</g>
<g id="XMLID_52_">
</g>
<g id="XMLID_53_">
</g>
<g id="XMLID_54_">
</g>
<g id="XMLID_55_">
</g>
<g id="XMLID_56_">
</g>
<g id="XMLID_57_">
</g>
<g id="XMLID_58_">
</g>
<g id="XMLID_59_">
</g>
</svg>
